# xmcd
#
# Track frame offsets:
# 183
# 11078
# 23155
# 39420
# 48413
# 59725
# 69613
# 80703
# 90070
# 104530
# 117118
# 125955
# 136140
# 149398
# 162668
# 172478
# 187115
# 196780
# 209145
# 218360
# 230723
# 243835
# 255820
# 266980
# 277705
# 290583
# 302123
# 314708
# 328498
#
# Disc length: 4545 seconds
#
#
# Revision: 1
# Processed by: cddbd v1.5.1PL2 Copyright (c) Steve Scherf et al.
# Submitted via: FreeRIP 2.944 
#
DISCID=c711bf1d
DTITLE=Cliff Richard - Unforgettable
DYEAR=1989
DGENRE=Undefined
TTITLE0=Movie it
TTITLE1=Living doll
TTITLE2=Y'arriva
TTITLE3=Gee whiz it's you
TTITLE4=Fall in love with you
TTITLE5=A voice in the wilderness
TTITLE6="D" in love
TTITLE7=Let's make a memory
TTITLE8=Young ones
TTITLE9=I'm looking out the window
TTITLE10=It'll be me
TTITLE11=Do you wanna dance
TTITLE12=The next time
TTITLE13=Spanish Harlem
TTITLE14=Dancing shoes
TTITLE15=It's all in the game
TTITLE16=Summer holiday
TTITLE17=Lucky lips
TTITLE18=Bachelor boy
TTITLE19=Outsider
TTITLE20=I could easily fall in love
TTITLE21=Constantly
TTITLE22=Wind me up
TTITLE23=Blue turns to grey
TTITLE24=All my love
TTITLE25=Congratulations
TTITLE26=Goodbye Sam hello Samantha
TTITLE27=Power to all our friends
TTITLE28=Forty days (to come back home)
EXTD=
EXTT0=
EXTT1=
EXTT2=
EXTT3=
EXTT4=
EXTT5=
EXTT6=
EXTT7=
EXTT8=
EXTT9=
EXTT10=
EXTT11=
EXTT12=
EXTT13=
EXTT14=
EXTT15=
EXTT16=
EXTT17=
EXTT18=
EXTT19=
EXTT20=
EXTT21=
EXTT22=
EXTT23=
EXTT24=
EXTT25=
EXTT26=
EXTT27=
EXTT28=
PLAYORDER=
